<svg width="48" height="48" viewBox="0 0 48 48" fill="none" xmlns="http://www.w3.org/2000/svg">
<g filter="url(#filter0_i_137_163)">
<rect x="5" width="39" height="48" rx="15" fill="#2E70FF"/>
<path d="M24.9023 38.4688C16.543 38.4688 11.4648 33 11.4648 23.8984C11.4648 14.8164 16.6406 9.32812 24.7461 9.32812C30.0195 9.32812 34.1016 11.6719 36.0352 15.7344C36.4258 16.4766 36.6211 17.2383 36.6211 17.9414C36.6211 19.4844 35.5859 20.4805 34.0234 20.4805C32.6953 20.4805 31.8555 19.8945 31.2109 18.5273C29.9219 15.6562 27.6172 14.2109 24.8047 14.2109C20.3516 14.2109 17.4805 17.9414 17.4805 23.8789C17.4805 29.8945 20.3125 33.6055 24.8242 33.6055C27.793 33.6055 30.0195 32.2578 31.2891 29.4258C31.8945 28.0977 32.6367 27.5703 33.8867 27.5703C35.5469 27.5703 36.6406 28.625 36.6406 30.1875C36.6406 30.8516 36.4844 31.4766 36.1914 32.1602C34.4336 36.0664 30.2344 38.4688 24.9023 38.4688Z" fill="white"/>
</g>
<defs>
<filter id="filter0_i_137_163" x="5" y="-3" width="39" height="51" filterUnits="userSpaceOnUse" color-interpolation-filters="sRGB">
<feFlood flood-opacity="0" result="BackgroundImageFix"/>
<feBlend mode="normal" in="SourceGraphic" in2="BackgroundImageFix" result="shape"/>
<feColorMatrix in="SourceAlpha" type="matrix" values="0 0 0 0 0 0 0 0 0 0 0 0 0 0 0 0 0 0 127 0" result="hardAlpha"/>
<feOffset dy="-3"/>
<feGaussianBlur stdDeviation="2"/>
<feComposite in2="hardAlpha" operator="arithmetic" k2="-1" k3="1"/>
<feColorMatrix type="matrix" values="0 0 0 0 0 0 0 0 0 0 0 0 0 0 0 0 0 0 0.25 0"/>
<feBlend mode="normal" in2="shape" result="effect1_innerShadow_137_163"/>
</filter>
</defs>
</svg>
