<svg width="135" height="48" viewBox="0 0 135 48" fill="none" xmlns="http://www.w3.org/2000/svg">
<path d="M54.1719 33.3594C49.1094 33.3594 45.875 30.1094 45.875 24.6094C45.875 19.1875 49.1562 15.8906 54.1719 15.8906C59.1875 15.8906 62.4688 19.1719 62.4688 24.6094C62.4688 30.125 59.2344 33.3594 54.1719 33.3594ZM54.1719 29.875C56.4062 29.875 57.8281 27.9844 57.8281 24.625C57.8281 21.2969 56.3906 19.375 54.1719 19.375C51.9531 19.375 50.5 21.2969 50.5 24.625C50.5 27.9844 51.9219 29.875 54.1719 29.875ZM71.0469 33.2656C66.8594 33.2656 64.2188 29.9531 64.2188 24.5938C64.2188 19.2812 66.875 15.9844 71.0781 15.9844C73.5 15.9844 75.375 17.2656 76.1875 19.125H76.2812V12.5C76.2812 10.9375 77.2344 10.1094 78.5625 10.1094C79.9062 10.1094 80.8438 10.9375 80.8438 12.5V31.0156C80.8438 32.5312 79.9062 33.3281 78.5781 33.3281C77.2656 33.3281 76.2812 32.5469 76.2812 31.0156V30.0469H76.2031C75.4688 31.9219 73.625 33.2656 71.0469 33.2656ZM72.5938 29.5938C74.8594 29.5938 76.3125 27.6875 76.3125 24.625C76.3125 21.5781 74.8594 19.6406 72.5938 19.6406C70.2969 19.6406 68.8906 21.5625 68.8906 24.625C68.8906 27.7031 70.2969 29.5938 72.5938 29.5938ZM91.5938 33.3594C86.3594 33.3594 83.2812 30.125 83.2812 24.7031C83.2812 19.3125 86.4219 15.8906 91.375 15.8906C96.125 15.8906 99.3125 19.1406 99.3125 23.6875C99.3125 24.9531 98.5938 25.6719 97.3281 25.6719H87.7656V25.875C87.7656 28.3594 89.2656 29.9844 91.5781 29.9844C93.25 29.9844 94.3438 29.4219 95.5781 27.9688C96.0625 27.4688 96.4688 27.2969 97.0625 27.2969C98.0469 27.2969 98.8438 27.9219 98.8438 28.9688C98.8438 29.3281 98.7344 29.7031 98.5312 30.0781C97.4219 32.1406 94.8281 33.3594 91.5938 33.3594ZM87.8125 22.875H94.9219C94.8281 20.6875 93.4219 19.2656 91.4219 19.2656C89.4219 19.2656 87.9688 20.7344 87.8125 22.875ZM108.453 33.3281C106.703 33.3281 105.766 32.625 105.156 31L100.797 19.3125C100.656 18.9062 100.547 18.4219 100.547 17.9531C100.547 16.7188 101.531 15.9062 102.828 15.9062C103.938 15.9062 104.672 16.5 105.016 17.7344L108.406 28.9688H108.5L111.891 17.6875C112.203 16.4844 112.969 15.9062 114.031 15.9062C115.297 15.9062 116.25 16.7812 116.25 17.9375C116.25 18.3594 116.141 18.8281 116 19.2188L111.641 31C111.062 32.6094 110.109 33.3281 108.453 33.3281ZM125.547 33.3594C120.484 33.3594 117.25 30.1094 117.25 24.6094C117.25 19.1875 120.531 15.8906 125.547 15.8906C130.562 15.8906 133.844 19.1719 133.844 24.6094C133.844 30.125 130.609 33.3594 125.547 33.3594ZM125.547 29.875C127.781 29.875 129.203 27.9844 129.203 24.625C129.203 21.2969 127.766 19.375 125.547 19.375C123.328 19.375 121.875 21.2969 121.875 24.625C121.875 27.9844 123.297 29.875 125.547 29.875Z" fill="#2E70FF"/>
<g filter="url(#filter0_i_75_260)">
<rect width="39" height="48" rx="15" fill="#2E70FF"/>
<path d="M19.9023 38.4688C11.543 38.4688 6.46484 33 6.46484 23.8984C6.46484 14.8164 11.6406 9.32812 19.7461 9.32812C25.0195 9.32812 29.1016 11.6719 31.0352 15.7344C31.4258 16.4766 31.6211 17.2383 31.6211 17.9414C31.6211 19.4844 30.5859 20.4805 29.0234 20.4805C27.6953 20.4805 26.8555 19.8945 26.2109 18.5273C24.9219 15.6562 22.6172 14.2109 19.8047 14.2109C15.3516 14.2109 12.4805 17.9414 12.4805 23.8789C12.4805 29.8945 15.3125 33.6055 19.8242 33.6055C22.793 33.6055 25.0195 32.2578 26.2891 29.4258C26.8945 28.0977 27.6367 27.5703 28.8867 27.5703C30.5469 27.5703 31.6406 28.625 31.6406 30.1875C31.6406 30.8516 31.4844 31.4766 31.1914 32.1602C29.4336 36.0664 25.2344 38.4688 19.9023 38.4688Z" fill="white"/>
</g>
<defs>
<filter id="filter0_i_75_260" x="0" y="-3" width="39" height="51" filterUnits="userSpaceOnUse" color-interpolation-filters="sRGB">
<feFlood flood-opacity="0" result="BackgroundImageFix"/>
<feBlend mode="normal" in="SourceGraphic" in2="BackgroundImageFix" result="shape"/>
<feColorMatrix in="SourceAlpha" type="matrix" values="0 0 0 0 0 0 0 0 0 0 0 0 0 0 0 0 0 0 127 0" result="hardAlpha"/>
<feOffset dy="-3"/>
<feGaussianBlur stdDeviation="2"/>
<feComposite in2="hardAlpha" operator="arithmetic" k2="-1" k3="1"/>
<feColorMatrix type="matrix" values="0 0 0 0 0 0 0 0 0 0 0 0 0 0 0 0 0 0 0.25 0"/>
<feBlend mode="normal" in2="shape" result="effect1_innerShadow_75_260"/>
</filter>
</defs>
</svg>
